<?xml version="1.0" encoding="UTF-8"?>
<svg xmlns="http://www.w3.org/2000/svg" xmlns:xlink="http://www.w3.org/1999/xlink" width="576pt" height="432pt" viewBox="0 0 576 432" version="1.1">
<defs>
<g>
<symbol overflow="visible" id="glyph0-0">
<path style="stroke:none;" d=""/>
</symbol>
<symbol overflow="visible" id="glyph0-1">
<path style="stroke:none;" d="M 2.875 -1.546875 L 2.875 0 L 3.65625 0 L 3.65625 -1.546875 L 4.578125 -1.546875 L 4.578125 -2.234375 L 3.65625 -2.234375 L 3.65625 -6.359375 L 3.078125 -6.359375 L 0.25 -2.359375 L 0.25 -1.546875 Z M 2.875 -2.234375 L 0.921875 -2.234375 L 2.875 -5.046875 Z M 2.875 -2.234375 "/>
</symbol>
<symbol overflow="visible" id="glyph0-2">
<path style="stroke:none;" d="M 2.421875 -6.359375 C 1.84375 -6.359375 1.3125 -6.09375 0.984375 -5.671875 C 0.578125 -5.109375 0.375 -4.25 0.375 -3.078125 C 0.375 -0.9375 1.078125 0.203125 2.421875 0.203125 C 3.734375 0.203125 4.453125 -0.9375 4.453125 -3.03125 C 4.453125 -4.25 4.265625 -5.078125 3.859375 -5.671875 C 3.53125 -6.109375 3.015625 -6.359375 2.421875 -6.359375 Z M 2.421875 -5.671875 C 3.25 -5.671875 3.671875 -4.828125 3.671875 -3.09375 C 3.671875 -1.28125 3.265625 -0.4375 2.40625 -0.4375 C 1.578125 -0.4375 1.171875 -1.3125 1.171875 -3.0625 C 1.171875 -4.828125 1.578125 -5.671875 2.421875 -5.671875 Z M 2.421875 -5.671875 "/>
</symbol>
<symbol overflow="visible" id="glyph0-3">
<path style="stroke:none;" d="M 4.1875 -6.234375 L 0.96875 -6.234375 L 0.5 -2.84375 L 1.21875 -2.84375 C 1.578125 -3.265625 1.875 -3.421875 2.359375 -3.421875 C 3.203125 -3.421875 3.71875 -2.84375 3.71875 -1.921875 C 3.71875 -1.03125 3.203125 -0.484375 2.359375 -0.484375 C 1.6875 -0.484375 1.265625 -0.828125 1.078125 -1.53125 L 0.3125 -1.53125 C 0.40625 -1.015625 0.5 -0.78125 0.6875 -0.546875 C 1.03125 -0.078125 1.671875 0.203125 2.375 0.203125 C 3.640625 0.203125 4.515625 -0.71875 4.515625 -2.03125 C 4.515625 -3.265625 3.6875 -4.109375 2.5 -4.109375 C 2.0625 -4.109375 1.703125 -4 1.34375 -3.734375 L 1.59375 -5.46875 L 4.1875 -5.46875 Z M 4.1875 -6.234375 "/>
</symbol>
<symbol overflow="visible" id="glyph0-4">
<path style="stroke:none;" d="M 4.375 -4.703125 C 4.234375 -5.75 3.5625 -6.359375 2.609375 -6.359375 C 1.921875 -6.359375 1.3125 -6.03125 0.9375 -5.453125 C 0.546875 -4.828125 0.375 -4.0625 0.375 -2.90625 C 0.375 -1.828125 0.53125 -1.15625 0.90625 -0.59375 C 1.234375 -0.078125 1.78125 0.203125 2.46875 0.203125 C 3.65625 0.203125 4.515625 -0.6875 4.515625 -1.921875 C 4.515625 -3.09375 3.71875 -3.921875 2.609375 -3.921875 C 1.984375 -3.921875 1.5 -3.6875 1.171875 -3.234375 C 1.171875 -4.796875 1.671875 -5.671875 2.5625 -5.671875 C 3.109375 -5.671875 3.484375 -5.328125 3.609375 -4.703125 Z M 2.5 -3.234375 C 3.25 -3.234375 3.71875 -2.703125 3.71875 -1.859375 C 3.71875 -1.0625 3.1875 -0.484375 2.484375 -0.484375 C 1.765625 -0.484375 1.21875 -1.09375 1.21875 -1.90625 C 1.21875 -2.6875 1.734375 -3.234375 2.5 -3.234375 Z M 2.5 -3.234375 "/>
</symbol>
<symbol overflow="visible" id="glyph0-5">
<path style="stroke:none;" d="M 4.578125 -6.234375 L 0.40625 -6.234375 L 0.40625 -5.46875 L 3.78125 -5.46875 C 2.28125 -3.359375 1.6875 -2.046875 1.21875 0 L 2.046875 0 C 2.390625 -2 3.171875 -3.71875 4.578125 -5.59375 Z M 4.578125 -6.234375 "/>
</symbol>
<symbol overflow="visible" id="glyph0-6">
<path style="stroke:none;" d="M 2.921875 -6.40625 L 2.921875 -1.90625 C 2.921875 -1.390625 2.875 -1.09375 2.734375 -0.875 C 2.5625 -0.640625 2.265625 -0.484375 1.9375 -0.484375 C 1.328125 -0.484375 0.984375 -0.890625 0.984375 -1.640625 L 0.984375 -2.0625 L 0.15625 -2.0625 L 0.15625 -1.5 C 0.15625 -0.453125 0.828125 0.203125 1.9375 0.203125 C 3.046875 0.203125 3.75 -0.5 3.75 -1.59375 L 3.75 -6.40625 Z M 2.921875 -6.40625 "/>
</symbol>
<symbol overflow="visible" id="glyph0-7">
<path style="stroke:none;" d="M 4.703125 -0.4375 C 4.625 -0.40625 4.59375 -0.40625 4.546875 -0.40625 C 4.296875 -0.40625 4.15625 -0.546875 4.15625 -0.78125 L 4.15625 -3.484375 C 4.15625 -4.296875 3.546875 -4.734375 2.421875 -4.734375 C 1.734375 -4.734375 1.203125 -4.546875 0.890625 -4.203125 C 0.671875 -3.96875 0.59375 -3.703125 0.578125 -3.25 L 1.3125 -3.25 C 1.375 -3.8125 1.703125 -4.0625 2.390625 -4.0625 C 3.0625 -4.0625 3.421875 -3.8125 3.421875 -3.375 L 3.421875 -3.1875 C 3.40625 -2.875 3.25 -2.75 2.65625 -2.671875 C 1.625 -2.546875 1.453125 -2.5 1.171875 -2.390625 C 0.640625 -2.15625 0.375 -1.765625 0.375 -1.15625 C 0.375 -0.328125 0.953125 0.203125 1.875 0.203125 C 2.46875 0.203125 2.921875 0 3.453125 -0.46875 C 3.5 0 3.734375 0.203125 4.203125 0.203125 C 4.359375 0.203125 4.453125 0.1875 4.703125 0.125 Z M 3.421875 -1.453125 C 3.421875 -1.203125 3.359375 -1.0625 3.125 -0.859375 C 2.828125 -0.578125 2.46875 -0.4375 2.046875 -0.4375 C 1.46875 -0.4375 1.140625 -0.71875 1.140625 -1.171875 C 1.140625 -1.65625 1.453125 -1.90625 2.25 -2.015625 C 3.03125 -2.125 3.171875 -2.15625 3.421875 -2.28125 Z M 3.421875 -1.453125 "/>
</symbol>
<symbol overflow="visible" id="glyph0-8">
<path style="stroke:none;" d="M 0.609375 -4.609375 L 0.609375 0 L 1.359375 0 L 1.359375 -2.546875 C 1.359375 -3.484375 1.84375 -4.09375 2.609375 -4.09375 C 3.1875 -4.09375 3.546875 -3.75 3.546875 -3.1875 L 3.546875 0 L 4.28125 0 L 4.28125 -3.484375 C 4.28125 -4.25 3.71875 -4.734375 2.828125 -4.734375 C 2.140625 -4.734375 1.703125 -4.484375 1.296875 -3.828125 L 1.296875 -4.609375 Z M 0.609375 -4.609375 "/>
</symbol>
<symbol overflow="visible" id="glyph0-9">
<path style="stroke:none;" d=""/>
</symbol>
<symbol overflow="visible" id="glyph0-10">
<path style="stroke:none;" d="M 4.453125 -0.765625 L 1.171875 -0.765625 C 1.25 -1.296875 1.53125 -1.625 2.296875 -2.09375 L 3.171875 -2.59375 C 4.046875 -3.0625 4.5 -3.71875 4.5 -4.5 C 4.5 -5.03125 4.28125 -5.53125 3.921875 -5.875 C 3.546875 -6.203125 3.09375 -6.359375 2.5 -6.359375 C 1.703125 -6.359375 1.125 -6.078125 0.78125 -5.53125 C 0.546875 -5.203125 0.453125 -4.796875 0.4375 -4.15625 L 1.21875 -4.15625 C 1.234375 -4.59375 1.296875 -4.84375 1.40625 -5.0625 C 1.59375 -5.4375 2 -5.6875 2.46875 -5.6875 C 3.171875 -5.6875 3.703125 -5.171875 3.703125 -4.484375 C 3.703125 -3.96875 3.40625 -3.53125 2.859375 -3.21875 L 2.046875 -2.75 C 0.75 -2 0.375 -1.40625 0.296875 -0.015625 L 4.453125 -0.015625 Z M 4.453125 -0.765625 "/>
</symbol>
<symbol overflow="visible" id="glyph0-11">
<path style="stroke:none;" d="M 4.171875 -1.921875 L 4.828125 0 L 5.75 0 L 3.5 -6.40625 L 2.4375 -6.40625 L 0.15625 0 L 1.015625 0 L 1.703125 -1.921875 Z M 3.9375 -2.609375 L 1.90625 -2.609375 L 2.953125 -5.53125 Z M 3.9375 -2.609375 "/>
</symbol>
<symbol overflow="visible" id="glyph0-12">
<path style="stroke:none;" d="M 0.46875 1.921875 L 1.21875 1.921875 L 1.21875 -0.484375 C 1.59375 -0.015625 2.03125 0.203125 2.625 0.203125 C 3.828125 0.203125 4.59375 -0.75 4.59375 -2.21875 C 4.59375 -3.78125 3.84375 -4.734375 2.625 -4.734375 C 2 -4.734375 1.5 -4.453125 1.15625 -3.921875 L 1.15625 -4.609375 L 0.46875 -4.609375 Z M 2.5 -4.0625 C 3.3125 -4.0625 3.828125 -3.34375 3.828125 -2.25 C 3.828125 -1.203125 3.296875 -0.484375 2.5 -0.484375 C 1.71875 -0.484375 1.21875 -1.1875 1.21875 -2.265625 C 1.21875 -3.359375 1.71875 -4.0625 2.5 -4.0625 Z M 2.5 -4.0625 "/>
</symbol>
<symbol overflow="visible" id="glyph0-13">
<path style="stroke:none;" d="M 0.609375 -4.609375 L 0.609375 0 L 1.34375 0 L 1.34375 -2.390625 C 1.359375 -3.5 1.8125 -4 2.828125 -3.96875 L 2.828125 -4.71875 C 2.703125 -4.734375 2.625 -4.734375 2.546875 -4.734375 C 2.0625 -4.734375 1.703125 -4.453125 1.28125 -3.78125 L 1.28125 -4.609375 Z M 0.609375 -4.609375 "/>
</symbol>
<symbol overflow="visible" id="glyph0-14">
<path style="stroke:none;" d="M 4.234375 0 L 4.234375 -4.609375 L 3.515625 -4.609375 L 3.515625 -2 C 3.515625 -1.0625 3.015625 -0.4375 2.25 -0.4375 C 1.671875 -0.4375 1.296875 -0.796875 1.296875 -1.34375 L 1.296875 -4.609375 L 0.578125 -4.609375 L 0.578125 -1.0625 C 0.578125 -0.296875 1.140625 0.203125 2.046875 0.203125 C 2.71875 0.203125 3.15625 -0.03125 3.578125 -0.640625 L 3.578125 0 Z M 4.234375 0 "/>
</symbol>
<symbol overflow="visible" id="glyph0-15">
<path style="stroke:none;" d="M 1.34375 -6.40625 L 0.59375 -6.40625 L 0.59375 0 L 1.34375 0 Z M 1.34375 -6.40625 "/>
</symbol>
<symbol overflow="visible" id="glyph0-16">
<path style="stroke:none;" d="M 3.421875 -6.515625 C 1.578125 -6.515625 0.328125 -5.15625 0.328125 -3.15625 C 0.328125 -1.140625 1.578125 0.203125 3.4375 0.203125 C 4.21875 0.203125 4.90625 -0.03125 5.421875 -0.46875 C 6.109375 -1.0625 6.53125 -2.0625 6.53125 -3.109375 C 6.53125 -5.171875 5.296875 -6.515625 3.421875 -6.515625 Z M 3.421875 -5.796875 C 4.8125 -5.796875 5.703125 -4.75 5.703125 -3.125 C 5.703125 -1.578125 4.78125 -0.515625 3.4375 -0.515625 C 2.0625 -0.515625 1.15625 -1.578125 1.15625 -3.15625 C 1.15625 -4.734375 2.0625 -5.796875 3.421875 -5.796875 Z M 3.421875 -5.796875 "/>
</symbol>
<symbol overflow="visible" id="glyph0-17">
<path style="stroke:none;" d="M 4.140625 -3.0625 C 4.109375 -3.515625 4.015625 -3.796875 3.828125 -4.0625 C 3.515625 -4.484375 2.96875 -4.734375 2.328125 -4.734375 C 1.078125 -4.734375 0.265625 -3.75 0.265625 -2.21875 C 0.265625 -0.734375 1.0625 0.203125 2.3125 0.203125 C 3.40625 0.203125 4.109375 -0.453125 4.203125 -1.578125 L 3.453125 -1.578125 C 3.328125 -0.84375 2.953125 -0.46875 2.328125 -0.46875 C 1.515625 -0.46875 1.03125 -1.140625 1.03125 -2.21875 C 1.03125 -3.375 1.515625 -4.0625 2.3125 -4.0625 C 2.921875 -4.0625 3.3125 -3.703125 3.40625 -3.0625 Z M 4.140625 -3.0625 "/>
</symbol>
<symbol overflow="visible" id="glyph0-18">
<path style="stroke:none;" d="M 2.234375 -4.609375 L 1.484375 -4.609375 L 1.484375 -5.875 L 0.75 -5.875 L 0.75 -4.609375 L 0.125 -4.609375 L 0.125 -4.015625 L 0.75 -4.015625 L 0.75 -0.53125 C 0.75 -0.046875 1.0625 0.203125 1.640625 0.203125 C 1.828125 0.203125 1.984375 0.1875 2.234375 0.140625 L 2.234375 -0.46875 C 2.125 -0.453125 2.03125 -0.4375 1.875 -0.4375 C 1.5625 -0.4375 1.484375 -0.53125 1.484375 -0.859375 L 1.484375 -4.015625 L 2.234375 -4.015625 Z M 2.234375 -4.609375 "/>
</symbol>
<symbol overflow="visible" id="glyph1-0">
<path style="stroke:none;" d=""/>
</symbol>
<symbol overflow="visible" id="glyph1-1">
<path style="stroke:none;" d="M 5.4375 -8.015625 L 4.53125 -8.015625 L 4.53125 -5.03125 C 4.140625 -5.625 3.53125 -5.921875 2.765625 -5.921875 C 1.265625 -5.921875 0.28125 -4.734375 0.28125 -2.890625 C 0.28125 -0.953125 1.234375 0.25 2.796875 0.25 C 3.59375 0.25 4.140625 -0.046875 4.625 -0.765625 L 4.625 0 L 5.4375 0 Z M 2.921875 -5.078125 C 3.90625 -5.078125 4.53125 -4.203125 4.53125 -2.8125 C 4.53125 -1.484375 3.890625 -0.609375 2.921875 -0.609375 C 1.90625 -0.609375 1.25 -1.5 1.25 -2.84375 C 1.25 -4.1875 1.90625 -5.078125 2.921875 -5.078125 Z M 2.921875 -5.078125 "/>
</symbol>
<symbol overflow="visible" id="glyph1-2">
<path style="stroke:none;" d="M 5.890625 -0.53125 C 5.78125 -0.515625 5.734375 -0.515625 5.6875 -0.515625 C 5.375 -0.515625 5.1875 -0.6875 5.1875 -0.96875 L 5.1875 -4.359375 C 5.1875 -5.375 4.4375 -5.921875 3.03125 -5.921875 C 2.171875 -5.921875 1.5 -5.6875 1.109375 -5.265625 C 0.84375 -4.96875 0.734375 -4.625 0.71875 -4.0625 L 1.640625 -4.0625 C 1.71875 -4.765625 2.140625 -5.078125 2.984375 -5.078125 C 3.828125 -5.078125 4.28125 -4.78125 4.28125 -4.21875 L 4.28125 -3.984375 C 4.265625 -3.59375 4.0625 -3.4375 3.328125 -3.34375 C 2.03125 -3.171875 1.828125 -3.140625 1.46875 -2.984375 C 0.796875 -2.703125 0.46875 -2.203125 0.46875 -1.453125 C 0.46875 -0.40625 1.1875 0.25 2.359375 0.25 C 3.078125 0.25 3.65625 0 4.3125 -0.59375 C 4.375 0 4.65625 0.25 5.265625 0.25 C 5.453125 0.25 5.578125 0.234375 5.890625 0.15625 Z M 4.28125 -1.8125 C 4.28125 -1.5 4.1875 -1.3125 3.921875 -1.0625 C 3.546875 -0.71875 3.09375 -0.546875 2.546875 -0.546875 C 1.84375 -0.546875 1.421875 -0.890625 1.421875 -1.46875 C 1.421875 -2.078125 1.8125 -2.390625 2.8125 -2.53125 C 3.78125 -2.65625 3.96875 -2.703125 4.28125 -2.84375 Z M 4.28125 -1.8125 "/>
</symbol>
<symbol overflow="visible" id="glyph1-3">
<path style="stroke:none;" d="M 2.796875 -5.765625 L 1.84375 -5.765625 L 1.84375 -7.34375 L 0.9375 -7.34375 L 0.9375 -5.765625 L 0.15625 -5.765625 L 0.15625 -5.015625 L 0.9375 -5.015625 L 0.9375 -0.65625 C 0.9375 -0.0625 1.328125 0.25 2.046875 0.25 C 2.28125 0.25 2.484375 0.234375 2.796875 0.171875 L 2.796875 -0.59375 C 2.65625 -0.5625 2.546875 -0.546875 2.359375 -0.546875 C 1.953125 -0.546875 1.84375 -0.65625 1.84375 -1.0625 L 1.84375 -5.015625 L 2.796875 -5.015625 Z M 2.796875 -5.765625 "/>
</symbol>
<symbol overflow="visible" id="glyph1-4">
<path style="stroke:none;" d="M 5.640625 -2.578125 C 5.640625 -3.453125 5.578125 -3.984375 5.40625 -4.40625 C 5.03125 -5.359375 4.15625 -5.921875 3.078125 -5.921875 C 1.46875 -5.921875 0.4375 -4.703125 0.4375 -2.8125 C 0.4375 -0.90625 1.4375 0.25 3.0625 0.25 C 4.375 0.25 5.296875 -0.5 5.515625 -1.75 L 4.59375 -1.75 C 4.34375 -0.984375 3.828125 -0.59375 3.09375 -0.59375 C 2.515625 -0.59375 2.015625 -0.859375 1.703125 -1.34375 C 1.484375 -1.671875 1.40625 -2 1.390625 -2.578125 Z M 1.421875 -3.328125 C 1.5 -4.390625 2.140625 -5.078125 3.0625 -5.078125 C 4 -5.078125 4.65625 -4.359375 4.65625 -3.328125 Z M 1.421875 -3.328125 "/>
</symbol>
<symbol overflow="visible" id="glyph2-0">
<path style="stroke:none;" d=""/>
</symbol>
<symbol overflow="visible" id="glyph2-1">
<path style="stroke:none;" d="M 2.390625 -0.59375 L 2.390625 -1.515625 L -0.609375 -1.515625 C -0.015625 -2 0.25 -2.546875 0.25 -3.28125 C 0.25 -4.78125 -0.953125 -5.75 -2.78125 -5.75 C -4.71875 -5.75 -5.921875 -4.8125 -5.921875 -3.28125 C -5.921875 -2.5 -5.578125 -1.875 -4.890625 -1.4375 L -5.765625 -1.4375 L -5.765625 -0.59375 Z M -5.078125 -3.125 C -5.078125 -4.140625 -4.1875 -4.796875 -2.8125 -4.796875 C -1.5 -4.796875 -0.609375 -4.125 -0.609375 -3.125 C -0.609375 -2.140625 -1.484375 -1.515625 -2.84375 -1.515625 C -4.1875 -1.515625 -5.078125 -2.140625 -5.078125 -3.125 Z M -5.078125 -3.125 "/>
</symbol>
<symbol overflow="visible" id="glyph2-2">
<path style="stroke:none;" d="M -5.765625 -0.765625 L 0 -0.765625 L 0 -1.6875 L -2.984375 -1.6875 C -4.375 -1.6875 -5 -2.265625 -4.96875 -3.53125 L -5.890625 -3.53125 C -5.921875 -3.375 -5.921875 -3.28125 -5.921875 -3.171875 C -5.921875 -2.578125 -5.578125 -2.140625 -4.71875 -1.609375 L -5.765625 -1.609375 Z M -5.765625 -0.765625 "/>
</symbol>
<symbol overflow="visible" id="glyph2-3">
<path style="stroke:none;" d="M -5.765625 -1.65625 L -5.765625 -0.734375 L 0 -0.734375 L 0 -1.65625 Z M -8.015625 -1.65625 L -8.015625 -0.71875 L -6.859375 -0.71875 L -6.859375 -1.65625 Z M -8.015625 -1.65625 "/>
</symbol>
<symbol overflow="visible" id="glyph2-4">
<path style="stroke:none;" d="M -3.828125 -5.1875 C -4.390625 -5.140625 -4.75 -5.015625 -5.078125 -4.796875 C -5.609375 -4.40625 -5.921875 -3.703125 -5.921875 -2.90625 C -5.921875 -1.34375 -4.703125 -0.34375 -2.78125 -0.34375 C -0.921875 -0.34375 0.25 -1.328125 0.25 -2.890625 C 0.25 -4.265625 -0.578125 -5.140625 -1.984375 -5.25 L -1.984375 -4.328125 C -1.0625 -4.171875 -0.59375 -3.703125 -0.59375 -2.921875 C -0.59375 -1.90625 -1.421875 -1.296875 -2.78125 -1.296875 C -4.21875 -1.296875 -5.078125 -1.890625 -5.078125 -2.890625 C -5.078125 -3.65625 -4.625 -4.140625 -3.828125 -4.25 Z M -3.828125 -5.1875 "/>
</symbol>
<symbol overflow="visible" id="glyph2-5">
<path style="stroke:none;" d="M -2.578125 -5.640625 C -3.453125 -5.640625 -3.984375 -5.578125 -4.40625 -5.40625 C -5.359375 -5.03125 -5.921875 -4.15625 -5.921875 -3.078125 C -5.921875 -1.46875 -4.703125 -0.4375 -2.8125 -0.4375 C -0.90625 -0.4375 0.25 -1.4375 0.25 -3.0625 C 0.25 -4.375 -0.5 -5.296875 -1.75 -5.515625 L -1.75 -4.59375 C -0.984375 -4.34375 -0.59375 -3.828125 -0.59375 -3.09375 C -0.59375 -2.515625 -0.859375 -2.015625 -1.34375 -1.703125 C -1.671875 -1.484375 -2 -1.40625 -2.578125 -1.390625 Z M -3.328125 -1.421875 C -4.390625 -1.5 -5.078125 -2.140625 -5.078125 -3.0625 C -5.078125 -4 -4.359375 -4.65625 -3.328125 -4.65625 Z M -3.328125 -1.421875 "/>
</symbol>
</g>
<clipPath id="clip1">
  <path d="M 35.152344 5.480469 L 570.523438 5.480469 L 570.523438 397.851562 L 35.152344 397.851562 Z M 35.152344 5.480469 "/>
</clipPath>
<clipPath id="clip2">
  <path d="M 35.152344 363 L 570.523438 363 L 570.523438 365 L 35.152344 365 Z M 35.152344 363 "/>
</clipPath>
<clipPath id="clip3">
  <path d="M 35.152344 276 L 570.523438 276 L 570.523438 277 L 35.152344 277 Z M 35.152344 276 "/>
</clipPath>
<clipPath id="clip4">
  <path d="M 35.152344 188 L 570.523438 188 L 570.523438 189 L 35.152344 189 Z M 35.152344 188 "/>
</clipPath>
<clipPath id="clip5">
  <path d="M 35.152344 100 L 570.523438 100 L 570.523438 102 L 35.152344 102 Z M 35.152344 100 "/>
</clipPath>
<clipPath id="clip6">
  <path d="M 35.152344 12 L 570.523438 12 L 570.523438 14 L 35.152344 14 Z M 35.152344 12 "/>
</clipPath>
<clipPath id="clip7">
  <path d="M 117 5.480469 L 118 5.480469 L 118 397.851562 L 117 397.851562 Z M 117 5.480469 "/>
</clipPath>
<clipPath id="clip8">
  <path d="M 238 5.480469 L 240 5.480469 L 240 397.851562 L 238 397.851562 Z M 238 5.480469 "/>
</clipPath>
<clipPath id="clip9">
  <path d="M 361 5.480469 L 363 5.480469 L 363 397.851562 L 361 397.851562 Z M 361 5.480469 "/>
</clipPath>
<clipPath id="clip10">
  <path d="M 485 5.480469 L 486 5.480469 L 486 397.851562 L 485 397.851562 Z M 485 5.480469 "/>
</clipPath>
<clipPath id="clip11">
  <path d="M 35.152344 319 L 570.523438 319 L 570.523438 321 L 35.152344 321 Z M 35.152344 319 "/>
</clipPath>
<clipPath id="clip12">
  <path d="M 35.152344 232 L 570.523438 232 L 570.523438 234 L 35.152344 234 Z M 35.152344 232 "/>
</clipPath>
<clipPath id="clip13">
  <path d="M 35.152344 144 L 570.523438 144 L 570.523438 146 L 35.152344 146 Z M 35.152344 144 "/>
</clipPath>
<clipPath id="clip14">
  <path d="M 35.152344 56 L 570.523438 56 L 570.523438 58 L 35.152344 58 Z M 35.152344 56 "/>
</clipPath>
<clipPath id="clip15">
  <path d="M 56 5.480469 L 58 5.480469 L 58 397.851562 L 56 397.851562 Z M 56 5.480469 "/>
</clipPath>
<clipPath id="clip16">
  <path d="M 177 5.480469 L 179 5.480469 L 179 397.851562 L 177 397.851562 Z M 177 5.480469 "/>
</clipPath>
<clipPath id="clip17">
  <path d="M 299 5.480469 L 301 5.480469 L 301 397.851562 L 299 397.851562 Z M 299 5.480469 "/>
</clipPath>
<clipPath id="clip18">
  <path d="M 423 5.480469 L 425 5.480469 L 425 397.851562 L 423 397.851562 Z M 423 5.480469 "/>
</clipPath>
<clipPath id="clip19">
  <path d="M 546 5.480469 L 549 5.480469 L 549 397.851562 L 546 397.851562 Z M 546 5.480469 "/>
</clipPath>
</defs>
<g id="surface1">
<rect x="0" y="0" width="576" height="432" style="fill:rgb(100%,100%,100%);fill-opacity:1;stroke:none;"/>
<rect x="0" y="0" width="576" height="432" style="fill:rgb(100%,100%,100%);fill-opacity:1;stroke:none;"/>
<path style="fill:none;stroke-width:1.066978;stroke-linecap:round;stroke-linejoin:round;stroke:rgb(100%,100%,100%);stroke-opacity:1;stroke-miterlimit:10;" d="M 0 432 L 576 432 L 576 0 L 0 0 Z M 0 432 "/>
<g clip-path="url(#clip1)" clip-rule="nonzero">
<path style=" stroke:none;fill-rule:nonzero;fill:rgb(92.156863%,92.156863%,92.156863%);fill-opacity:1;" d="M 35.152344 397.847656 L 570.523438 397.847656 L 570.523438 5.476562 L 35.152344 5.476562 Z M 35.152344 397.847656 "/>
</g>
<g clip-path="url(#clip2)" clip-rule="nonzero">
<path style="fill:none;stroke-width:0.533489;stroke-linecap:butt;stroke-linejoin:round;stroke:rgb(100%,100%,100%);stroke-opacity:1;stroke-miterlimit:10;" d="M 35.152344 364.21875 L 570.519531 364.21875 "/>
</g>
<g clip-path="url(#clip3)" clip-rule="nonzero">
<path style="fill:none;stroke-width:0.533489;stroke-linecap:butt;stroke-linejoin:round;stroke:rgb(100%,100%,100%);stroke-opacity:1;stroke-miterlimit:10;" d="M 35.152344 276.46875 L 570.519531 276.46875 "/>
</g>
<g clip-path="url(#clip4)" clip-rule="nonzero">
<path style="fill:none;stroke-width:0.533489;stroke-linecap:butt;stroke-linejoin:round;stroke:rgb(100%,100%,100%);stroke-opacity:1;stroke-miterlimit:10;" d="M 35.152344 188.722656 L 570.519531 188.722656 "/>
</g>
<g clip-path="url(#clip5)" clip-rule="nonzero">
<path style="fill:none;stroke-width:0.533489;stroke-linecap:butt;stroke-linejoin:round;stroke:rgb(100%,100%,100%);stroke-opacity:1;stroke-miterlimit:10;" d="M 35.152344 100.972656 L 570.519531 100.972656 "/>
</g>
<g clip-path="url(#clip6)" clip-rule="nonzero">
<path style="fill:none;stroke-width:0.533489;stroke-linecap:butt;stroke-linejoin:round;stroke:rgb(100%,100%,100%);stroke-opacity:1;stroke-miterlimit:10;" d="M 35.152344 13.222656 L 570.519531 13.222656 "/>
</g>
<g clip-path="url(#clip7)" clip-rule="nonzero">
<path style="fill:none;stroke-width:0.533489;stroke-linecap:butt;stroke-linejoin:round;stroke:rgb(100%,100%,100%);stroke-opacity:1;stroke-miterlimit:10;" d="M 117.296875 397.847656 L 117.296875 5.480469 "/>
</g>
<g clip-path="url(#clip8)" clip-rule="nonzero">
<path style="fill:none;stroke-width:0.533489;stroke-linecap:butt;stroke-linejoin:round;stroke:rgb(100%,100%,100%);stroke-opacity:1;stroke-miterlimit:10;" d="M 238.972656 397.847656 L 238.972656 5.480469 "/>
</g>
<g clip-path="url(#clip9)" clip-rule="nonzero">
<path style="fill:none;stroke-width:0.533489;stroke-linecap:butt;stroke-linejoin:round;stroke:rgb(100%,100%,100%);stroke-opacity:1;stroke-miterlimit:10;" d="M 361.992188 397.847656 L 361.992188 5.480469 "/>
</g>
<g clip-path="url(#clip10)" clip-rule="nonzero">
<path style="fill:none;stroke-width:0.533489;stroke-linecap:butt;stroke-linejoin:round;stroke:rgb(100%,100%,100%);stroke-opacity:1;stroke-miterlimit:10;" d="M 485.683594 397.847656 L 485.683594 5.480469 "/>
</g>
<g clip-path="url(#clip11)" clip-rule="nonzero">
<path style="fill:none;stroke-width:1.066978;stroke-linecap:butt;stroke-linejoin:round;stroke:rgb(100%,100%,100%);stroke-opacity:1;stroke-miterlimit:10;" d="M 35.152344 320.34375 L 570.519531 320.34375 "/>
</g>
<g clip-path="url(#clip12)" clip-rule="nonzero">
<path style="fill:none;stroke-width:1.066978;stroke-linecap:butt;stroke-linejoin:round;stroke:rgb(100%,100%,100%);stroke-opacity:1;stroke-miterlimit:10;" d="M 35.152344 232.597656 L 570.519531 232.597656 "/>
</g>
<g clip-path="url(#clip13)" clip-rule="nonzero">
<path style="fill:none;stroke-width:1.066978;stroke-linecap:butt;stroke-linejoin:round;stroke:rgb(100%,100%,100%);stroke-opacity:1;stroke-miterlimit:10;" d="M 35.152344 144.847656 L 570.519531 144.847656 "/>
</g>
<g clip-path="url(#clip14)" clip-rule="nonzero">
<path style="fill:none;stroke-width:1.066978;stroke-linecap:butt;stroke-linejoin:round;stroke:rgb(100%,100%,100%);stroke-opacity:1;stroke-miterlimit:10;" d="M 35.152344 57.097656 L 570.519531 57.097656 "/>
</g>
<g clip-path="url(#clip15)" clip-rule="nonzero">
<path style="fill:none;stroke-width:1.066978;stroke-linecap:butt;stroke-linejoin:round;stroke:rgb(100%,100%,100%);stroke-opacity:1;stroke-miterlimit:10;" d="M 56.796875 397.847656 L 56.796875 5.480469 "/>
</g>
<g clip-path="url(#clip16)" clip-rule="nonzero">
<path style="fill:none;stroke-width:1.066978;stroke-linecap:butt;stroke-linejoin:round;stroke:rgb(100%,100%,100%);stroke-opacity:1;stroke-miterlimit:10;" d="M 177.800781 397.847656 L 177.800781 5.480469 "/>
</g>
<g clip-path="url(#clip17)" clip-rule="nonzero">
<path style="fill:none;stroke-width:1.066978;stroke-linecap:butt;stroke-linejoin:round;stroke:rgb(100%,100%,100%);stroke-opacity:1;stroke-miterlimit:10;" d="M 300.148438 397.847656 L 300.148438 5.480469 "/>
</g>
<g clip-path="url(#clip18)" clip-rule="nonzero">
<path style="fill:none;stroke-width:1.066978;stroke-linecap:butt;stroke-linejoin:round;stroke:rgb(100%,100%,100%);stroke-opacity:1;stroke-miterlimit:10;" d="M 423.839844 397.847656 L 423.839844 5.480469 "/>
</g>
<g clip-path="url(#clip19)" clip-rule="nonzero">
<path style="fill:none;stroke-width:1.066978;stroke-linecap:butt;stroke-linejoin:round;stroke:rgb(100%,100%,100%);stroke-opacity:1;stroke-miterlimit:10;" d="M 547.53125 397.847656 L 547.53125 5.480469 "/>
</g>
<path style="fill:none;stroke-width:1.066978;stroke-linecap:butt;stroke-linejoin:round;stroke:rgb(72.156863%,0%,0%);stroke-opacity:1;stroke-miterlimit:10;" d="M 59.484375 123.960938 L 63.519531 122.121094 L 64.863281 121.417969 L 66.207031 120.804688 L 67.550781 120.1875 L 68.898438 119.488281 L 72.929688 117.644531 L 74.273438 116.941406 L 75.621094 116.328125 L 78.308594 115.101562 L 83.6875 112.554688 L 85.03125 111.851562 L 86.375 111.238281 L 87.71875 103.339844 L 91.753906 107.90625 L 93.097656 110.449219 L 94.441406 115.800781 L 95.785156 114.574219 L 97.132812 112.554688 L 101.164062 110.097656 L 102.507812 113.785156 L 103.851562 110.363281 L 106.542969 114.132812 L 110.574219 114.574219 L 111.921875 117.382812 L 113.265625 117.03125 L 114.609375 116.503906 L 115.953125 117.644531 L 119.988281 117.382812 L 121.332031 118.171875 L 122.675781 120.015625 L 124.019531 119.488281 L 125.363281 121.503906 L 129.398438 115.625 L 130.742188 116.066406 L 132.085938 118.433594 L 133.433594 117.820312 L 134.777344 116.503906 L 138.808594 116.589844 L 140.152344 118.433594 L 141.5 120.714844 L 142.84375 122.472656 L 144.1875 125.542969 L 148.222656 128.789062 L 149.566406 129.839844 L 150.910156 128.875 L 152.253906 130.542969 L 153.597656 137.5625 L 157.632812 144.847656 L 158.976562 150.113281 L 160.320312 150.289062 L 161.664062 149.234375 L 163.011719 149.234375 L 167.042969 153.621094 L 168.386719 158.007812 L 169.734375 177.753906 L 171.078125 162.398438 L 172.421875 155.816406 L 176.453125 171.171875 L 177.800781 171.171875 L 179.144531 175.734375 L 180.488281 188.722656 L 181.832031 188.722656 L 185.867188 190.039062 L 187.210938 193.109375 L 189.898438 193.109375 L 191.246094 194.601562 L 195.277344 206.269531 L 196.621094 232.597656 L 197.964844 234.789062 L 199.3125 232.597656 L 206.035156 219.433594 L 207.378906 224.523438 L 208.722656 229.699219 L 214.101562 250.144531 L 215.445312 254.53125 L 216.789062 250.144531 L 218.132812 230.402344 L 219.476562 230.929688 L 223.511719 232.597656 L 224.855469 223.820312 L 226.199219 226.015625 L 227.546875 228.207031 L 228.890625 241.371094 L 232.921875 214.167969 L 234.265625 207.148438 L 235.613281 194.863281 L 236.957031 182.578125 L 238.300781 188.722656 L 242.335938 184.332031 L 243.679688 182.578125 L 245.023438 185.035156 L 246.367188 187.582031 L 247.710938 190.039062 L 251.746094 197.496094 L 253.089844 197.496094 L 254.433594 188.722656 L 255.777344 190.738281 L 257.125 190.914062 L 262.5 188.722656 L 263.847656 188.722656 L 265.191406 182.140625 L 266.535156 188.722656 L 270.566406 177.226562 L 271.914062 173.367188 L 273.257812 173.367188 L 274.601562 172.222656 L 275.945312 173.277344 L 279.980469 171.171875 L 281.324219 175.558594 L 282.667969 166.785156 L 284.011719 166.785156 L 289.390625 158.007812 L 290.734375 153.621094 L 292.078125 153.621094 L 293.425781 154.5 L 294.769531 155.375 L 298.800781 158.007812 L 300.148438 162.398438 L 302.835938 171.171875 L 304.179688 171.171875 L 308.214844 166.785156 L 309.558594 162.398438 L 310.902344 162.222656 L 312.246094 166.785156 L 313.589844 165.90625 L 317.625 163.273438 L 318.96875 162.398438 L 320.3125 162.398438 L 321.660156 164.941406 L 323.003906 167.398438 L 327.035156 174.945312 L 328.378906 177.402344 L 329.726562 179.945312 L 331.070312 173.804688 L 332.414062 173.804688 L 336.449219 176.875 L 337.792969 179.945312 L 339.136719 179.945312 L 340.480469 184.332031 L 341.824219 175.558594 L 345.859375 171.171875 L 347.203125 171.171875 L 348.546875 171.257812 L 349.890625 171.257812 L 351.238281 171.347656 L 355.269531 171.523438 L 356.613281 171.609375 L 357.960938 173.539062 L 359.304688 175.558594 L 360.648438 175.558594 L 364.679688 177.753906 L 366.027344 178.105469 L 367.371094 178.542969 L 370.058594 179.246094 L 374.09375 180.472656 L 375.4375 180.824219 L 376.78125 177.753906 L 378.125 171.171875 L 383.503906 171.171875 L 384.847656 179.945312 L 386.191406 171.171875 L 387.539062 171.171875 L 388.882812 166.785156 L 394.261719 166.785156 L 395.605469 162.398438 L 398.292969 162.398438 L 402.328125 165.820312 L 403.671875 166.960938 L 405.015625 166.785156 L 406.359375 167.835938 L 407.703125 168.890625 L 411.738281 173.367188 L 413.082031 163.449219 L 414.425781 167.835938 L 415.773438 170.996094 L 421.148438 170.292969 L 422.492188 170.734375 L 423.839844 171.171875 L 425.183594 173.539062 L 426.527344 173.101562 L 430.5625 171.609375 L 431.90625 174.679688 L 433.25 184.332031 L 434.59375 183.632812 L 435.9375 182.84375 L 439.972656 180.648438 L 441.316406 179.945312 L 444.003906 179.945312 L 445.351562 180.824219 L 449.382812 184.160156 L 450.726562 185.210938 L 452.074219 185.824219 L 453.417969 186.441406 L 454.761719 187.054688 L 460.140625 189.597656 L 461.484375 206.269531 L 462.828125 207.148438 L 464.171875 206.972656 L 468.207031 206.269531 L 469.550781 215.046875 L 470.894531 226.015625 L 473.582031 287.4375 L 477.617188 284.191406 L 478.960938 276.46875 L 480.304688 261.113281 L 481.652344 290.6875 L 482.996094 291.476562 L 487.027344 294.019531 L 488.375 290.6875 L 489.71875 287.4375 L 491.0625 285.246094 L 492.40625 283.050781 L 496.441406 276.46875 L 497.785156 285.246094 L 499.128906 294.019531 L 500.472656 320.34375 L 501.816406 333.507812 L 505.851562 320.34375 L 507.195312 314.203125 L 508.539062 320.785156 L 509.882812 320.785156 L 511.230469 307.183594 L 515.261719 320.34375 L 517.953125 320.34375 L 519.296875 322.539062 L 520.640625 324.292969 L 524.675781 326.839844 L 526.019531 327.628906 L 527.363281 337.894531 L 528.707031 337.894531 L 530.050781 320.34375 L 534.085938 320.695312 L 535.429688 320.871094 L 536.773438 320.960938 L 543.496094 321.660156 L 544.839844 321.75 L 546.1875 321.925781 "/>
<path style="fill:none;stroke-width:1.066978;stroke-linecap:butt;stroke-linejoin:round;stroke:rgb(85.098039%,37.254902%,0.784314%);stroke-opacity:1;stroke-miterlimit:10;" d="M 59.484375 59.378906 L 60.832031 48.324219 L 62.175781 57.097656 L 66.207031 57.097656 L 67.550781 67.1875 L 68.898438 65.871094 L 70.242188 65.871094 L 71.585938 77.28125 L 75.621094 79.035156 L 76.964844 75.964844 L 78.308594 79.035156 L 79.652344 78.15625 L 80.996094 77.28125 L 86.375 74.648438 L 87.71875 65.871094 L 89.0625 48.324219 L 90.410156 50.957031 L 94.441406 49.199219 L 95.785156 46.128906 L 97.132812 44.375 L 98.476562 23.3125 L 103.851562 28.578125 L 106.542969 29.457031 L 107.886719 33.40625 L 109.230469 35.597656 L 113.265625 36.039062 L 114.609375 38.230469 L 115.953125 42.179688 L 117.296875 44.375 L 118.640625 59.292969 L 122.675781 63.679688 L 125.363281 63.679688 L 126.710938 87.808594 L 128.054688 83.421875 L 132.085938 79.035156 L 133.433594 82.105469 L 134.777344 87.808594 L 136.121094 85.617188 L 140.152344 90.003906 L 141.5 91.757812 L 142.84375 81.230469 L 144.1875 68.503906 L 145.53125 65.871094 L 149.566406 61.484375 L 150.910156 71.136719 L 152.253906 74.648438 L 153.597656 92.199219 L 154.945312 100.972656 L 158.976562 105.359375 L 160.320312 99.21875 L 161.664062 97.460938 L 163.011719 223.820312 L 164.355469 177.753906 L 168.386719 190.039062 L 169.734375 185.210938 L 171.078125 166.785156 L 172.421875 162.398438 L 179.144531 159.324219 L 180.488281 153.621094 L 181.832031 150.988281 L 183.175781 158.007812 L 187.210938 162.398438 L 188.554688 188.722656 L 189.898438 195.300781 L 191.246094 190.476562 L 192.589844 214.605469 L 196.621094 188.722656 L 197.964844 189.863281 L 199.3125 206.269531 L 200.65625 195.300781 L 202 186.964844 L 206.035156 182.140625 L 207.378906 184.332031 L 208.722656 179.945312 L 211.410156 180.824219 L 215.445312 182.140625 L 216.789062 186.527344 L 218.132812 186.527344 L 219.476562 184.332031 L 220.824219 188.28125 L 224.855469 190.914062 L 226.199219 188.722656 L 227.546875 193.109375 L 228.890625 193.109375 L 230.234375 188.722656 L 234.265625 190.914062 L 235.613281 190.914062 L 236.957031 179.945312 L 238.300781 195.300781 L 239.644531 203.199219 L 243.679688 232.597656 L 245.023438 267.695312 L 246.367188 241.371094 L 247.710938 254.53125 L 249.054688 276.46875 L 253.089844 274.277344 L 254.433594 279.71875 L 255.777344 272.082031 L 257.125 254.53125 L 258.46875 241.371094 L 263.847656 232.597656 L 265.191406 184.332031 L 266.535156 179.945312 L 267.878906 197.496094 L 271.914062 208.464844 L 273.257812 223.820312 L 274.601562 223.820312 L 275.945312 212.851562 L 277.289062 215.046875 L 281.324219 232.597656 L 282.667969 232.597656 L 284.011719 241.371094 L 285.359375 250.144531 L 286.703125 245.757812 L 290.734375 221.628906 L 292.078125 228.910156 L 293.425781 228.03125 L 294.769531 229.261719 L 300.148438 230.402344 L 301.492188 223.117188 L 304.179688 223.117188 L 305.523438 216.539062 L 309.558594 218.730469 L 310.902344 212.851562 L 312.246094 209.519531 L 313.589844 205.65625 L 314.9375 204.429688 L 318.96875 208.113281 L 320.3125 200.390625 L 321.660156 195.300781 L 323.003906 193.109375 L 324.347656 201.183594 L 328.378906 205.570312 L 329.726562 212.414062 L 331.070312 221.1875 L 332.414062 223.820312 L 333.757812 227.507812 L 337.792969 225.3125 L 339.136719 223.820312 L 340.480469 213.554688 L 341.824219 215.046875 L 343.167969 211.359375 L 347.203125 202.585938 L 348.546875 194.601562 L 349.890625 202.9375 L 351.238281 200.390625 L 352.582031 202.324219 L 356.613281 198.375 L 357.960938 199.25 L 359.304688 197.496094 L 360.648438 202.585938 L 361.992188 204.78125 L 366.027344 203.375 L 367.371094 191.617188 L 368.714844 144.144531 L 370.058594 144.582031 L 371.402344 144.144531 L 375.4375 142.300781 L 376.78125 136.070312 L 378.125 136.773438 L 379.46875 135.019531 L 380.816406 133.175781 L 384.847656 127.296875 L 386.191406 126.59375 L 387.539062 133.878906 L 388.882812 129.492188 L 390.226562 128.789062 L 394.261719 133.878906 L 395.605469 129.753906 L 396.949219 128.789062 L 398.292969 129.050781 L 399.636719 131.773438 L 403.671875 131.683594 L 405.015625 133.175781 L 406.359375 134.492188 L 407.703125 134.929688 L 409.050781 131.683594 L 413.082031 128 L 414.425781 132.125 L 415.773438 129.226562 L 417.117188 128.789062 L 418.460938 125.277344 L 422.492188 123.785156 L 423.839844 125.804688 L 425.183594 123.523438 L 426.527344 119.925781 L 427.871094 117.644531 L 431.90625 117.207031 L 433.25 120.453125 L 434.59375 122.996094 L 435.9375 123.085938 L 437.28125 121.769531 L 441.316406 118.875 L 442.660156 119.3125 L 444.003906 119.3125 L 445.351562 121.066406 L 446.695312 117.382812 L 450.726562 119.3125 L 452.074219 120.101562 L 453.417969 118.171875 L 454.761719 119.398438 L 456.105469 119.136719 L 461.484375 118.433594 L 462.828125 119.136719 L 464.171875 117.207031 L 465.515625 116.417969 L 469.550781 115.363281 L 470.894531 115.976562 L 472.238281 112.378906 L 473.582031 112.027344 L 474.929688 111.765625 L 478.960938 111.503906 L 480.304688 111.851562 L 481.652344 111.941406 L 482.996094 110.886719 L 484.339844 111.679688 L 488.375 111.152344 L 489.71875 111.0625 L 491.0625 110.886719 L 492.40625 110.800781 L 493.75 110.625 L 497.785156 110.625 L 499.128906 110.449219 L 500.472656 110.011719 L 501.816406 109.660156 L 503.164062 109.570312 L 507.195312 109.660156 L 508.539062 109.484375 L 509.882812 109.484375 L 511.230469 110.011719 L 512.574219 117.46875 L 516.605469 127.296875 L 517.953125 145.550781 L 519.296875 153.269531 L 520.640625 144.847656 L 521.984375 121.417969 L 526.019531 118.960938 L 527.363281 117.644531 L 528.707031 126.945312 L 530.050781 135.371094 L 531.394531 132.914062 L 535.429688 130.984375 L 536.773438 130.367188 L 540.808594 128.4375 L 544.839844 126.507812 L 546.1875 125.894531 "/>
<path style="fill:none;stroke-width:1.066978;stroke-linecap:butt;stroke-linejoin:round;stroke:rgb(90.588235%,16.078431%,54.117647%);stroke-opacity:1;stroke-miterlimit:10;" d="M 62.175781 322.539062 L 63.519531 324.730469 L 64.863281 331.578125 L 66.207031 338.507812 L 67.550781 345.351562 L 71.585938 355.445312 L 72.929688 354.128906 L 74.273438 358.953125 L 75.621094 364.21875 L 76.964844 380.015625 L 82.339844 355.445312 L 83.6875 347.722656 L 85.03125 340.089844 L 86.375 368.167969 L 90.410156 372.996094 L 91.753906 371.941406 L 93.097656 371.238281 L 94.441406 368.605469 L 95.785156 364.21875 L 99.820312 364.21875 L 101.164062 355.445312 L 102.507812 344.476562 L 103.851562 340.089844 L 109.230469 335.699219 L 110.574219 329.121094 L 111.921875 318.152344 L 113.265625 285.246094 L 114.609375 294.019531 L 118.640625 320.34375 L 119.988281 304.988281 L 121.332031 294.019531 L 122.675781 295.335938 L 124.019531 280.417969 L 128.054688 273.839844 L 129.398438 261.113281 L 130.742188 254.53125 L 132.085938 255.410156 L 133.433594 256.289062 L 137.464844 258.921875 L 138.808594 270.589844 L 140.152344 282.351562 L 141.5 294.019531 L 142.84375 282.613281 L 146.875 276.46875 L 148.222656 281.558594 L 149.566406 285.246094 L 150.910156 286.296875 L 152.253906 287.4375 L 156.289062 307.183594 L 157.632812 313.765625 L 158.976562 320.34375 L 160.320312 311.570312 L 161.664062 320.34375 L 165.699219 320.34375 L 167.042969 315.957031 L 168.386719 302.796875 L 169.734375 302.796875 L 171.078125 307.183594 L 185.867188 307.183594 L 187.210938 304.988281 L 188.554688 294.019531 L 189.898438 276.46875 L 193.933594 276.46875 L 195.277344 267.695312 L 196.621094 272.082031 L 197.964844 267.695312 L 199.3125 263.308594 L 203.34375 245.757812 L 204.6875 241.371094 L 206.035156 241.371094 L 207.378906 240.933594 L 208.722656 232.597656 L 216.789062 232.597656 L 218.132812 223.820312 "/>
<g style="fill:rgb(30.196078%,30.196078%,30.196078%);fill-opacity:1;">
  <use xlink:href="#glyph0-1" x="20.21875" y="323.258789"/>
  <use xlink:href="#glyph0-2" x="25.21875" y="323.258789"/>
</g>
<g style="fill:rgb(30.196078%,30.196078%,30.196078%);fill-opacity:1;">
  <use xlink:href="#glyph0-3" x="20.21875" y="235.512695"/>
  <use xlink:href="#glyph0-2" x="25.21875" y="235.512695"/>
</g>
<g style="fill:rgb(30.196078%,30.196078%,30.196078%);fill-opacity:1;">
  <use xlink:href="#glyph0-4" x="20.21875" y="147.762695"/>
  <use xlink:href="#glyph0-2" x="25.21875" y="147.762695"/>
</g>
<g style="fill:rgb(30.196078%,30.196078%,30.196078%);fill-opacity:1;">
  <use xlink:href="#glyph0-5" x="20.21875" y="60.012695"/>
  <use xlink:href="#glyph0-2" x="25.21875" y="60.012695"/>
</g>
<path style="fill:none;stroke-width:1.066978;stroke-linecap:butt;stroke-linejoin:round;stroke:rgb(20%,20%,20%);stroke-opacity:1;stroke-miterlimit:10;" d="M 32.410156 320.34375 L 35.152344 320.34375 "/>
<path style="fill:none;stroke-width:1.066978;stroke-linecap:butt;stroke-linejoin:round;stroke:rgb(20%,20%,20%);stroke-opacity:1;stroke-miterlimit:10;" d="M 32.410156 232.597656 L 35.152344 232.597656 "/>
<path style="fill:none;stroke-width:1.066978;stroke-linecap:butt;stroke-linejoin:round;stroke:rgb(20%,20%,20%);stroke-opacity:1;stroke-miterlimit:10;" d="M 32.410156 144.847656 L 35.152344 144.847656 "/>
<path style="fill:none;stroke-width:1.066978;stroke-linecap:butt;stroke-linejoin:round;stroke:rgb(20%,20%,20%);stroke-opacity:1;stroke-miterlimit:10;" d="M 32.410156 57.097656 L 35.152344 57.097656 "/>
<path style="fill:none;stroke-width:1.066978;stroke-linecap:butt;stroke-linejoin:round;stroke:rgb(20%,20%,20%);stroke-opacity:1;stroke-miterlimit:10;" d="M 56.796875 400.589844 L 56.796875 397.847656 "/>
<path style="fill:none;stroke-width:1.066978;stroke-linecap:butt;stroke-linejoin:round;stroke:rgb(20%,20%,20%);stroke-opacity:1;stroke-miterlimit:10;" d="M 177.800781 400.589844 L 177.800781 397.847656 "/>
<path style="fill:none;stroke-width:1.066978;stroke-linecap:butt;stroke-linejoin:round;stroke:rgb(20%,20%,20%);stroke-opacity:1;stroke-miterlimit:10;" d="M 300.148438 400.589844 L 300.148438 397.847656 "/>
<path style="fill:none;stroke-width:1.066978;stroke-linecap:butt;stroke-linejoin:round;stroke:rgb(20%,20%,20%);stroke-opacity:1;stroke-miterlimit:10;" d="M 423.839844 400.589844 L 423.839844 397.847656 "/>
<path style="fill:none;stroke-width:1.066978;stroke-linecap:butt;stroke-linejoin:round;stroke:rgb(20%,20%,20%);stroke-opacity:1;stroke-miterlimit:10;" d="M 547.53125 400.589844 L 547.53125 397.847656 "/>
<g style="fill:rgb(30.196078%,30.196078%,30.196078%);fill-opacity:1;">
  <use xlink:href="#glyph0-6" x="38.796875" y="409.196289"/>
  <use xlink:href="#glyph0-7" x="42.796875" y="409.196289"/>
  <use xlink:href="#glyph0-8" x="47.796875" y="409.196289"/>
  <use xlink:href="#glyph0-9" x="52.796875" y="409.196289"/>
  <use xlink:href="#glyph0-10" x="54.796875" y="409.196289"/>
  <use xlink:href="#glyph0-2" x="59.796875" y="409.196289"/>
  <use xlink:href="#glyph0-10" x="64.796875" y="409.196289"/>
  <use xlink:href="#glyph0-3" x="69.796875" y="409.196289"/>
</g>
<g style="fill:rgb(30.196078%,30.196078%,30.196078%);fill-opacity:1;">
  <use xlink:href="#glyph0-11" x="159.800781" y="409.196289"/>
  <use xlink:href="#glyph0-12" x="165.800781" y="409.196289"/>
  <use xlink:href="#glyph0-13" x="170.800781" y="409.196289"/>
  <use xlink:href="#glyph0-9" x="173.800781" y="409.196289"/>
  <use xlink:href="#glyph0-10" x="175.800781" y="409.196289"/>
  <use xlink:href="#glyph0-2" x="180.800781" y="409.196289"/>
  <use xlink:href="#glyph0-10" x="185.800781" y="409.196289"/>
  <use xlink:href="#glyph0-3" x="190.800781" y="409.196289"/>
</g>
<g style="fill:rgb(30.196078%,30.196078%,30.196078%);fill-opacity:1;">
  <use xlink:href="#glyph0-6" x="283.648438" y="409.196289"/>
  <use xlink:href="#glyph0-14" x="287.648438" y="409.196289"/>
  <use xlink:href="#glyph0-15" x="292.648438" y="409.196289"/>
  <use xlink:href="#glyph0-9" x="294.648438" y="409.196289"/>
  <use xlink:href="#glyph0-10" x="296.648438" y="409.196289"/>
  <use xlink:href="#glyph0-2" x="301.648438" y="409.196289"/>
  <use xlink:href="#glyph0-10" x="306.648438" y="409.196289"/>
  <use xlink:href="#glyph0-3" x="311.648438" y="409.196289"/>
</g>
<g style="fill:rgb(30.196078%,30.196078%,30.196078%);fill-opacity:1;">
  <use xlink:href="#glyph0-16" x="406.339844" y="409.196289"/>
  <use xlink:href="#glyph0-17" x="413.339844" y="409.196289"/>
  <use xlink:href="#glyph0-18" x="417.339844" y="409.196289"/>
  <use xlink:href="#glyph0-9" x="419.339844" y="409.196289"/>
  <use xlink:href="#glyph0-10" x="421.339844" y="409.196289"/>
  <use xlink:href="#glyph0-2" x="426.339844" y="409.196289"/>
  <use xlink:href="#glyph0-10" x="431.339844" y="409.196289"/>
  <use xlink:href="#glyph0-3" x="436.339844" y="409.196289"/>
</g>
<g style="fill:rgb(30.196078%,30.196078%,30.196078%);fill-opacity:1;">
  <use xlink:href="#glyph0-6" x="529.53125" y="409.196289"/>
  <use xlink:href="#glyph0-7" x="533.53125" y="409.196289"/>
  <use xlink:href="#glyph0-8" x="538.53125" y="409.196289"/>
  <use xlink:href="#glyph0-9" x="543.53125" y="409.196289"/>
  <use xlink:href="#glyph0-10" x="545.53125" y="409.196289"/>
  <use xlink:href="#glyph0-2" x="550.53125" y="409.196289"/>
  <use xlink:href="#glyph0-10" x="555.53125" y="409.196289"/>
  <use xlink:href="#glyph0-4" x="560.53125" y="409.196289"/>
</g>
<g style="fill:rgb(0%,0%,0%);fill-opacity:1;">
  <use xlink:href="#glyph1-1" x="292.335938" y="422.538086"/>
  <use xlink:href="#glyph1-2" x="298.335938" y="422.538086"/>
  <use xlink:href="#glyph1-3" x="304.335938" y="422.538086"/>
  <use xlink:href="#glyph1-4" x="307.335938" y="422.538086"/>
</g>
<g style="fill:rgb(0%,0%,0%);fill-opacity:1;">
  <use xlink:href="#glyph2-1" x="13.499023" y="213.664062"/>
  <use xlink:href="#glyph2-2" x="13.499023" y="207.664062"/>
  <use xlink:href="#glyph2-3" x="13.499023" y="203.664062"/>
  <use xlink:href="#glyph2-4" x="13.499023" y="201.664062"/>
  <use xlink:href="#glyph2-5" x="13.499023" y="195.664062"/>
</g>
</g>
</svg>
